<?xml version="1.0" encoding="utf-8"?>
<!-- Generator: Adobe Illustrator 19.0.0, SVG Export Plug-In . SVG Version: 6.00 Build 0)  -->
<svg version="1.1" id="Layer_1" xmlns="http://www.w3.org/2000/svg" xmlns:xlink="http://www.w3.org/1999/xlink" x="0px" y="0px"
	 viewBox="139.8 99.7 314 325.2" style="enable-background:new 139.8 99.7 314 325.2;" xml:space="preserve">
<g id="Слой_x0020_1">
	<path d="M332.6,146.6c69.4,14.6,121.2,70.5,121.2,137.3c0,77.9-70.3,141-157,141s-157-63.1-157-141c0-68.9,55-126.2,127.8-138.6
		c-1.2-4.3-2.4-8.3-3.4-11.3c-1.6-4.7-3-7.3-4.6-9.4c-1.6-2.2-3.4-3.9-4.5-5.2c-1.1-1.3-1.4-2.2-0.9-3.9c0.5-1.7,1.9-4.1,2.6-5.4
		s0.8-1.5,14.3-1.6c13.5-0.1,40.3-0.1,53.6-0.1c13.2,0,12.9,0,13.8,1.4s3.2,4.3,4.4,6.5c1.2,2.2,1.3,3.7-0.2,6.6
		c-1.5,2.9-4.6,7.1-6.9,13.1C334.5,139.2,333.5,142.8,332.6,146.6z M328,168.7c-1.1,5.5-2.2,10.6-2.6,13.8c-0.7,5.1-0.1,5.3,4.9,5.4
		c5.1,0.1,14.6,0.1,22.3,0.7s13.5,1.7,17.2,2.9c3.6,1.2,5,2.4,5.4,4.3c0.4,1.9-0.1,4.4-1.6,7c-1.5,2.6-4,5.4-9.6,7.4
		c-5.6,2-14.4,3.3-21,4.1c-6.6,0.8-11.1,1.2-14.4,1.4c-3.3,0.3-5.2,0.4-6.8,1.9c-1.6,1.5-2.7,4.4-3.4,7.1c-0.7,2.7-0.9,5.2-1.4,7.6
		c-0.4,2.4-1,4.6-0.7,5.8s1.8,1.3,2.3,2.4c0.6,1.1,0.3,3.3-0.8,5.8c-1.1,2.5-3.1,5.4-4.8,10c-1.6,4.6-2.9,11-3.3,17.6
		c-0.4,6.6,0.1,13.3,1,19.5c0.9,6.2,2.3,11.8,4.8,17.1c2.5,5.2,6.1,10.1,8.6,13.1s3.7,4.1,4.6,6.1c0.9,1.9,1.4,4.7,1.4,10.7
		c0.1,6.1-0.3,15.4-0.1,20.7c0.2,5.3,0.9,6.5,2.2,8.4c1.4,1.9,3.4,4.4,5.1,7.2c1.7,2.8,3.1,5.9,3.5,10c0.3,3-0.1,6.5-2.1,9.8
		c52.2-15.8,89.9-60.1,89.9-112.3C428.7,228.1,385.7,181.3,328,168.7L328,168.7z M260.7,398c-3-3.7-3.8-7.8-4.3-11
		c-0.5-3.9-0.4-6.4,0.9-9.7c1.2-3.3,3.5-7.6,5.1-10.1c1.5-2.5,2.3-3.3,2.9-8.1c0.7-4.8,1.2-13.5,1.9-18.8c0.7-5.2,1.6-7,2-8.8
		s0.3-3.5-1.6-5.8c-1.8-2.3-5.3-5.1-8-7.1c-2.7-2-4.6-3.3-6.2-4.2c-1.6-0.9-3.1-1.5-3.8-3.1c-0.7-1.6-0.7-4.3-0.4-7.1
		c0.3-2.8,1-5.8,1.9-8.2c0.9-2.4,2-4.2,4-5.4c2-1.2,4.9-1.8,7.9-1.1c3,0.7,6,2.9,7.9,4.7c1.8,1.8,2.5,3.3,2.8,5.6
		c0.3,2.3,0.4,5.4,0.7,8c0.3,2.7,1,4.9,2,6.6c1,1.6,2.4,2.7,3.7,3c1.3,0.3,2.7-0.1,3.7-2.9c1-2.8,1.9-7.9,2.7-15.3
		c0.8-7.4,1.5-17.2,1.5-24.7c0-7.5-0.9-12.6-1.6-16.7c-0.8-4-1.5-6.9-2.9-9.4s-3.4-4.5-4.3-6.1c-0.9-1.6-0.6-2.7,0.6-3.9
		c1.2-1.1,3.3-2.2,4.3-3.7s0.8-3.1-0.1-4.8c-0.9-1.7-2.5-3.4-3.7-5.7c-1.2-2.3-1.9-5.2-2.6-7.1c-0.7-1.9-1.3-2.8-3.9-3.5
		c-2.6-0.7-7.1-1-12.1-1.2c-5-0.2-10.6-0.1-15.5-0.7c-4.9-0.6-9.1-1.8-13.1-4c-4-2.2-7.9-5.5-9.6-7.8c-1.7-2.3-1.3-3.7,1-5.1
		c2.3-1.4,6.5-2.9,11.8-3.8c5.2-0.9,11.6-1.1,17.4-1.4c5.8-0.3,11.2-0.7,14.7-1.6s4.9-2.4,5.7-4.8c0.7-2.4,0.7-5.9-0.1-11.2
		c-0.2-1.4-0.5-3-0.9-4.7c-61.5,10.1-108.2,58.4-108.2,116.6c0,54.2,40.5,99.9,95.9,114L260.7,398z"/>
</g>
</svg>
