<?xml version="1.0" encoding="UTF-8"?>
<!DOCTYPE svg PUBLIC "-//W3C//DTD SVG 1.1//EN" "http://www.w3.org/Graphics/SVG/1.1/DTD/svg11.dtd">
<!-- Creator: CorelDRAW X6 -->
<svg xmlns="http://www.w3.org/2000/svg" xml:space="preserve" width="1881.7mm" height="628.874mm" version="1.1" style="shape-rendering:geometricPrecision; text-rendering:geometricPrecision; image-rendering:optimizeQuality; fill-rule:evenodd; clip-rule:evenodd"
viewBox="0 0 254737 85135"
 xmlns:xlink="http://www.w3.org/1999/xlink">
 <defs>
  <style type="text/css">
   <![CDATA[
    .fil0 {fill:#49241A}
    .fil1 {fill:#49241A;fill-rule:nonzero}
   ]]>
  </style>
 </defs>
 <g id="Слой_x0020_1">
  <metadata id="CorelCorpID_0Corel-Layer"/>
  <g id="_811928624">
   <path class="fil0" d="M145532 0c-12096,0 -24193,0 -36289,0 -2589,0 -4706,2118 -4706,4706l0 4010 2841 0c332,-1817 177,-4813 1813,-5874l11110 -112 141 13097 -10071 1 -69 2595 9853 86 143 21728 5861 0 0 -38307 2461 0 0 38307 5861 0 143 -21728 9853 -86 -69 -2595 -10071 -1 141 -13097 11110 112c1636,1061 1481,4058 1813,5874l2841 0 0 -4010c0,-2589 -2118,-4706 -4706,-4706z"/>
   <path class="fil0" d="M104066 28981c-498,-760 -2020,-2987 -281,-3101 1034,-68 1086,1437 3382,1415 525,-5 1059,-113 1582,-529 776,-616 958,-1262 1713,-1184 2183,226 3597,1625 5064,3291l-715 143c-3445,-1586 -7476,-2434 -10198,1040 -998,1272 -1855,2503 -1421,4331 441,1855 997,3331 3344,3509 1839,140 3465,-582 3294,-2999 -348,-4919 -6522,-1472 -3446,782 649,475 1647,287 1424,-854l-646 -175c-984,-401 -688,-1022 -86,-1075 4219,-379 545,5263 -1630,3151 -5627,-5463 7288,-13838 11300,-3533 737,1894 1366,4405 206,5439 -865,770 -2107,1512 -3242,1280 -4640,-947 21,-6386 1760,-3635 576,912 -184,2249 -1821,432 -1175,4025 5352,1480 1753,-1876 -966,-900 -2518,-1049 -4204,-865 -395,2417 -381,4130 -2984,5081 -3956,1451 -5666,-896 -7610,-5215 -786,-1747 2391,-3756 3462,-4856zm4827 1748l-1115 981c-288,240 -316,-361 -274,-601 291,-1650 575,-1417 2134,-1501 2515,-135 279,270 -745,1121zm2624 987l-1156 736c-297,178 -237,-373 -165,-587 499,-1464 725,-1211 2159,-1067 2313,233 217,286 -838,917zm2325 1190l-1116 443c-285,104 -143,-360 -45,-532 670,-1177 823,-922 2033,-562 1951,582 139,281 -872,651z"/>
   <path class="fil0" d="M150671 28981c498,-760 2020,-2987 281,-3101 -1034,-68 -1086,1437 -3382,1415 -525,-5 -1059,-113 -1582,-529 -776,-616 -958,-1262 -1713,-1184 -2183,226 -3597,1625 -5064,3291l715 143c3445,-1586 7476,-2434 10198,1040 998,1272 1855,2503 1421,4331 -441,1855 -997,3331 -3344,3509 -1839,140 -3465,-582 -3294,-2999 348,-4919 6522,-1472 3446,782 -649,475 -1647,287 -1424,-854l646 -175c984,-401 688,-1022 86,-1075 -4219,-379 -545,5263 1630,3151 5627,-5463 -7288,-13838 -11300,-3533 -737,1894 -1366,4405 -206,5439 865,770 2107,1512 3242,1280 4640,-947 -21,-6386 -1760,-3635 -576,912 184,2249 1821,432 1175,4025 -5352,1480 -1753,-1876 966,-900 2518,-1049 4204,-865 395,2417 381,4130 2984,5081 3956,1451 5666,-896 7610,-5215 786,-1747 -2391,-3756 -3462,-4856zm-4827 1748l1115 981c288,240 316,-361 274,-601 -291,-1650 -575,-1417 -2134,-1501 -2515,-135 -279,270 745,1121zm-2624 987l1156 736c297,178 237,-373 165,-587 -499,-1464 -725,-1211 -2159,-1067 -2313,233 -217,286 838,917zm-2325 1190l1116 443c285,104 143,-360 45,-532 -670,-1177 -823,-922 -2033,-562 -1951,582 -139,281 872,651z"/>
  </g>
  <path class="fil1" d="M0 57827l6177 -130 260 2471c3878,-4416 12768,-4479 16254,-1723 882,697 1300,1528 1300,2438 260,-217 780,-585 1560,-1105 3981,-3093 16151,-4163 20350,-531 1582,1368 2471,3077 2471,5353 0,2416 -997,4649 -2991,6718 -1777,1842 -3901,3186 -6372,3999 217,0 498,0 845,0l780 0c-433,0 1019,-152 4356,-455l3576 -325 -1885 2276 -19245 0 0 -585c4161,0 7867,-1355 11118,-4053 2427,-1994 3641,-4280 3641,-6848 0,-1734 -672,-3316 -2016,-4725 -1344,-1420 -2882,-2124 -4616,-2124 -2341,0 -4725,1279 -7152,3847 -2211,2351 -3576,4746 -4096,7184 -303,1430 -455,3630 -455,6588l0 715 -5591 0c910,-3641 1365,-6112 1365,-7412l0 -2276c0,-3554 -910,-6003 -2731,-7347 -3549,-2560 -7754,2227 -9558,4746 -1170,1647 -1755,4725 -1755,9232l0 1235c0,217 22,520 65,910 43,390 65,694 65,910l-5721 0 130 -650c910,-4551 1365,-8561 1365,-12028 0,-1474 -498,-3576 -1495,-6307zm79581 8517c0,3164 -964,5711 -2893,7640 -1929,1929 -4475,2893 -7640,2893l0 0c-43,0 -87,0 -130,0l-3121 0 -2081 0 -2341 0c-5028,0 -8257,-1734 -9688,-5201 -477,-1170 -715,-2297 -715,-3381 0,-3077 1029,-5613 3088,-7607 2059,-1994 4627,-2991 7705,-2991l3836 0 2991 0c3121,-87 5656,542 7607,1885 2254,1517 3381,3771 3381,6762zm-5331 65c0,-2167 -856,-4020 -2568,-5559 -1712,-1539 -3709,-1950 -5920,-1950 -2427,0 -4602,574 -6596,2438 -1994,1864 -2991,4009 -2991,6437 0,2211 910,4107 2731,5689 1820,1582 3858,1979 6112,1979 2471,0 4627,-560 6469,-2467 1842,-1907 2763,-4096 2763,-6567zm36019 -5917c303,-130 520,-238 650,-325l195 -65 65 -65c3501,-1853 5493,-2341 10663,-2341l10403 0 -520 2752c-303,1615 -455,4226 -455,7856 0,3533 325,6350 975,8441l-726 0 -1896 0 -3489 65 -130 -1224 -195 -780 -65 -964c0,-87 -22,-152 -65,-195l0 -130 0 -260 0 -249c0,-477 152,-2568 455,-6263l260 -3164c87,-1073 116,-1680 130,-1810l179 -1597 100 -839 -4210 -18c-1387,-6 -4184,193 -6731,1305 -4074,1994 -6112,5006 -6112,9037l0 1040c0,2341 368,4356 1105,6047l-845 0 -1820 0 -3381 65 -520 -2709 0 -1094c0,-780 217,-3793 650,-9037 87,-867 130,-1593 130,-2200l0 -2190 -3695 0c-87,0 -184,0 -293,0 -108,0 -173,0 -217,0l-455 0c-2373,0 -4389,83 -6025,911 -3977,2297 -5960,5266 -5960,8907 0,997 412,2536 1235,4616 260,607 628,1539 1105,2796l-1885 390c-737,173 -1669,347 -2796,520l-390 -390 -520 -390c-1734,-1690 -2601,-4139 -2601,-7347 0,-1560 238,-2861 715,-3901 1257,-2731 3836,-4768 7737,-6112l0 0c2390,-870 4946,-1615 8135,-1885l11695 0c-43,477 -238,1409 -585,2796zm48503 -466l-130 -2330 5852 0c-694,2839 -1040,6372 -1040,10609 0,4313 347,7130 1040,8441l-780 0 -1951 0 -3316 65 -195 -1235 -195 -780 -65 -715c-2601,1820 -5467,2892 -9065,2892 -1869,0 -4044,3 -5954,34 -2211,43 -4020,-628 -5429,-2016 -1409,-1387 -2113,-3186 -2113,-5396 0,-1560 238,-2861 715,-3901 1257,-2731 3836,-4768 7737,-6112l-1019 -130c-303,0 -1420,108 -3338,325l-2308 260c-759,87 -1365,130 -1788,130l1485 -2471 17370 0 0 520c-3121,607 -5461,1355 -7022,2265 -3988,2286 -5982,5245 -5982,8875 0,1647 542,3142 1625,4508 1084,1355 2531,1652 4134,1652 1387,0 2866,-178 4643,-1294 1560,-954 2861,-2059 3901,-3305 2384,-2850 3446,-6480 3186,-10890zm8257 -2330l6567 0 0 325c0,43 -22,108 -65,195 -43,87 -65,152 -65,195l0 910 -65 260 0 390c2124,-1170 4296,-1978 6677,-2244l6066 -32c2297,-217 4183,607 5656,2481 1300,1690 1951,3738 1951,6133 0,4345 -1799,7477 -5396,9395 -1907,997 -4703,1495 -8387,1495l-1755 0 -3121 -130c-87,0 -195,-22 -325,-65l-2016 0 0 5852c0,217 0,509 0,878 0,368 0,661 0,878l0 455 -5721 65 0 -780 390 -7217c260,-4811 390,-7542 390,-8192l0 -2731c0,-3294 -173,-5722 -520,-7282 0,-130 -43,-336 -130,-618 -87,-282 -130,-488 -130,-618zm5721 15268c2232,2135 4533,2838 6808,2838 2362,0 4440,-617 6282,-2578 1853,-1961 2774,-4139 2774,-6523 0,-2005 -650,-3771 -1940,-5288 -1290,-1528 -2893,-2286 -4833,-2286 -3012,0 -5353,1636 -7033,4898 -1376,2655 -2059,5635 -2059,8940zm47462 -12938l-130 -2330 5852 0c-694,2839 -1040,6372 -1040,10609 0,4313 347,7130 1040,8441l-780 0 -1951 0 -3316 65 -195 -1235 -195 -780 -65 -715c-2601,1820 -5592,2946 -9190,2946 -1925,0 -3917,-51 -5829,-20 -2211,43 -4020,-628 -5429,-2016 -1409,-1387 -2113,-3186 -2113,-5396 0,-1560 238,-2861 715,-3901 1257,-2731 3836,-4768 7737,-6112l-1019 -130c-303,0 -1420,108 -3338,325l-2308 260c-759,87 -1365,130 -1788,130l1485 -2471 17370 0 0 520c-3121,607 -5461,1355 -7022,2265 -3988,2286 -5982,5245 -5982,8875 0,1647 542,3142 1625,4508 1084,1355 2542,1609 4146,1609 1387,0 2854,-136 4632,-1252 1560,-954 2861,-2059 3901,-3305 2384,-2850 3446,-6480 3186,-10890zm28182 -1914l4912 430 1430 130 -2016 3836c-390,-260 -1560,-910 -3511,-1950 -1517,-780 -3511,-1170 -5982,-1170 -2514,0 -4714,802 -6599,2406 -1885,1604 -2828,3663 -2828,6177l0 520c0,2211 889,3584 2666,5123 1777,1539 3793,2308 6047,2308 4031,0 7824,-907 11378,-3725l-2276 4616 -3901 390c-1300,0 -2341,87 -3121,260l-4486 0c-7672,0 -11508,-2872 -11508,-8615 0,-2384 520,-4345 1560,-5873 954,-1344 2514,-2644 4681,-3912 997,-563 3043,-1132 6641,-1132 2126,0 4892,5 6912,182z"/>
 </g>
</svg>
